# xmcd
#
# Track frame offsets: 
#        150
#        12823
#        24595
#        37020
#        46437
#        59404
#        70203
#        82556
#        94601
#        106578
#        118485
#        129621
#        143105
#        155147
#        167604
#        181126
#        192111
#        203945
#        217454
#        228204
#        239510
#        251762
#        263218
#        274895
#
# Disc length: 3832 seconds
#
# Revision: 0
# Processed by: cddbd v1.5.2PL0 Copyright (c) Steve Scherf et al.
# Submitted via: ExactAudioCopy v1.0b1
#
DISCID=5c0ef618
DTITLE=Stuart Hamblen - Beyond The Sun
DYEAR=2008
DGENRE=Country
TTITLE0=It Is No Secret (What God Can Do)
TTITLE1=Open Up Your Heart (And Let the Sun Shine In)
TTITLE2=These Things Shall Pass
TTITLE3=Blood Upon Your Hands
TTITLE4=Where The Seasons Never Change
TTITLE5=The Lord Is Counting On You
TTITLE6=The King Of All Kings
TTITLE7=I Don't Know Why (I Only Know It's True)
TTITLE8=He Bought My Soul At Calvary
TTITLE9=I Believe
TTITLE10=His Hands
TTITLE11=This Ole House
TTITLE12=That'll Be The Day
TTITLE13=Lonesome Cowboy's Prayer
TTITLE14=My Father
TTITLE15=Hell Train
TTITLE16=He Keeps Me Singing
TTITLE17=Battle Hymn Of The Republic
TTITLE18=Dear Lord Be My Shepherd
TTITLE19=Somewhere Beyond The Sun
TTITLE20=This Book
TTITLE21=My Brother
TTITLE22=When My Lord Picks Up The Phone
TTITLE23=A Few Things To Remember
EXTD=
EXTT0=
EXTT1=
EXTT2=
EXTT3=
EXTT4=
EXTT5=
EXTT6=
EXTT7=
EXTT8=
EXTT9=
EXTT10=
EXTT11=
EXTT12=
EXTT13=
EXTT14=
EXTT15=
EXTT16=
EXTT17=
EXTT18=
EXTT19=
EXTT20=
EXTT21=
EXTT22=
EXTT23=
PLAYORDER=
